#!OML:ASF I:\Actors\actors\Patient Classification 1\Patient 1\Session 1\Subject1.ASF
:FULLY-SPECIFIED
:DEGREES
440
root 1.08358 17.5811 7.80859 5.59641 -11.8719 -6.45056
lowerback 0.48583 -2.90167 6.88607
upperback -5.61045 -3.39371 5.16979
thorax -6.2346 -1.89503 1.77343
lowerneck -14.2748 -2.69065 -1.63629
upperneck 39.9041 -7.10311 6.79522
head 17.4151 -2.35482 2.02875
rclavicle 4.86029e-014 -3.49861e-014
rhumerus 40.2864 49.6238 -63.2508
rradius 141.05
rwrist -58.2917
rhand -1.77839 -53.6199
rfingers 7.12502
rthumb 23.8859 277.845
lclavicle 4.86029e-014 -3.49861e-014
lhumerus 49.1301 31.4582 119.087
lradius 14.0643
lwrist -129.719
lhand -54.6675 -56.8564
lfingers 7.12502
lthumb -27.0621 -28.7756
rfemur -8.2425 24.8342 21.5721
rtibia 9.46752
rfoot -10.1194 -13.2178
rtoes -7.46471
lfemur 1.2627 -22.4965 -12.4679
ltibia 2.81367
lfoot -14.2347 38.5856
ltoes 2.54588
441
root 1.08985 17.5792 7.82844 5.64085 -12.2475 -6.59552
lowerback 0.264577 -2.99017 7.15501
upperback -5.65329 -3.51832 5.30864
thorax -6.168 -1.96688 1.76889
lowerneck -14.1557 -2.73886 -1.66915
upperneck 39.8981 -7.11939 6.64448
head 17.3719 -2.395 1.96173
rclavicle 6.44062e-014 -1.08934e-013
rhumerus 39.9257 49.6878 -63.4989
rradius 140.943
rwrist -58.3422
rhand -1.48639 -53.3094
rfingers 7.12502
rthumb 24.1659 278.193
lclavicle 6.44062e-014 -1.08934e-013
lhumerus 48.139 31.0013 116.459
lradius 13.8808
lwrist -129.316
lhand -53.9353 -58.5344
lfingers 7.12502
lthumb -26.3614 -30.3467
rfemur -8.18064 24.8881 21.7282
rtibia 9.40501
rfoot -10.0853 -12.9388
rtoes -7.76514
lfemur 1.31194 -22.2377 -12.3984
ltibia 3.01576
lfoot -14.4836 38.637
ltoes 2.80887
442
root 1.09482 17.5785 7.84377 5.67564 -12.6006 -6.70855
lowerback 0.160001 -3.09419 7.31941
upperback -5.74362 -3.6511 5.4665
thorax -6.2114 -2.03931 1.85259
lowerneck -13.9695 -2.86903 -1.90453
upperneck 39.8619 -7.24762 6.61505
head 17.3199 -2.4986 1.96591
rclavicle 1.31198e-014 1.59028e-015
rhumerus 40.1104 49.7322 -63.1025
rradius 141.054
rwrist -58.5051
rhand -1.67326 -53.0289
rfingers 7.12502
rthumb 23.9867 278.45
lclavicle 1.31198e-014 1.59028e-015
lhumerus 48.0008 31.9148 115.408
lradius 13.5921
lwrist -132.791
lhand -54.4824 -55.1784
lfingers 7.12502
lthumb -26.8849 -27.0702
rfemur -8.16116 24.957 21.833
rtibia 9.36999
rfoot -10.0653 -12.6974
rtoes -7.65776
lfemur 1.40496 -22.2226 -12.3939
ltibia 3.13373
lfoot -14.7648 38.9033
ltoes 3.08755
443
root 1.09814 17.5785 7.85746 5.6532 -13.0126 -6.71475
lowerback 0.137599 -3.17991 7.29255
upperback -5.82278 -3.75959 5.58821
thorax -6.27668 -2.09123 2.00583
lowerneck -13.78 -3.08182 -2.29429
upperneck 39.8835 -7.55013 6.7775
head 17.336 -2.67134 2.05536
rclavicle -1.86858e-014 1.90833e-014
rhumerus 39.5473 49.7304 -63.2298
rradius 140.944
rwrist -58.7017
rhand -1.23596 -52.1898
rfingers 7.12502
rthumb 24.406 279.345
lclavicle -1.86858e-014 1.90833e-014
lhumerus 47.8168 32.7043 114.216
lradius 13.3539
lwrist -136.037
lhand -55.1686 -52.4358
lfingers 7.12502
lthumb -27.5414 -24.4305
rfemur -8.13248 25.021 21.8223
rtibia 9.33417
rfoot -10.0108 -12.4313
rtoes -7.603
lfemur 1.62908 -22.2702 -12.5495
ltibia 3.10994
lfoot -15.0474 39.283
ltoes 3.48311
444
root 1.10023 17.5782 7.87369 5.58253 -13.5481 -6.61927
lowerback 0.128018 -3.27477 7.1417
upperback -5.89151 -3.8862 5.67181
thorax -6.3303 -2.14658 2.18791
lowerneck -13.4759 -3.27094 -2.66965
upperneck 39.8962 -7.82693 6.94304
head 17.3173 -2.83592 2.14977
rclavicle -2.78299e-014 -2.54444e-014
rhumerus 38.7237 49.6254 -63.6103
rradius 140.812
rwrist -59.1115
rhand -0.569204 -51.2333
rfingers 7.12502
rthumb 25.0451 280.389
lclavicle -2.78299e-014 -2.54444e-014
lhumerus 47.2366 33.2685 112.274
lradius 13.2699
lwrist -138.105
lhand -55.7205 -50.306
lfingers 7.12502
lthumb -28.0691 -22.386
rfemur -8.09154 24.9809 21.7047
rtibia 9.30581
rfoot -9.92273 -11.9663
rtoes -8.2153
lfemur 2.02597 -22.386 -12.905
ltibia 2.97865
lfoot -15.512 39.7778
ltoes 4.47535
445
root 1.10213 17.5771 7.88864 5.57271 -14.2069 -6.44149
lowerback 0.0743759 -3.33981 6.95182
upperback -5.96421 -3.98176 5.6991
thorax -6.36172 -2.18595 2.32702
lowerneck -13.2497 -3.4816 -3.01093
upperneck 39.9478 -8.212 7.22621
head 17.3616 -3.02235 2.27228
rclavicle 9.74045e-015 3.02153e-014
rhumerus 37.9024 49.2803 -64.1015
rradius 140.711
rwrist -59.6216
rhand 0.122018 -50.3332
rfingers 7.12502
rthumb 25.7072 281.383
lclavicle 9.74045e-015 3.02153e-014
lhumerus 45.2681 32.4087 107.877
lradius 13.2558
lwrist -136.613
lhand -55.8456 -48.3604
lfingers 7.12502
lthumb -28.1886 -20.46
rfemur -8.23286 24.874 21.4433
rtibia 9.38806
rfoot -9.87689 -11.2792
rtoes -8.93021
lfemur 2.3481 -22.5073 -13.3537
ltibia 2.89251
lfoot -16.0627 40.351
ltoes 5.62864
446
root 1.10343 17.5753 7.89993 5.69139 -14.9946 -6.31681
lowerback -0.050322 -3.35298 6.78739
upperback -6.03145 -4.01478 5.74432
thorax -6.34571 -2.19487 2.4613
lowerneck -13.1813 -3.73555 -3.32375
upperneck 40.1483 -8.71099 7.5281
head 17.549 -3.24271 2.37983
rclavicle -3.08116e-014 3.02153e-014
rhumerus 36.4268 48.8088 -64.7724
rradius 140.583
rwrist -59.8933
rhand 1.33048 -49.006
rfingers 7.12502
rthumb 26.8641 282.883
lclavicle -3.08116e-014 3.02153e-014
lhumerus 41.037 28.2396 99.2629
lradius 13.2537
lwrist -128.535
lhand -55.6308 -46.4149
lfingers 7.12502
lthumb -27.9833 -18.4808
rfemur -8.61808 24.9002 21.1774
rtibia 9.61188
rfoot -9.87488 -10.5521
rtoes -9.19101
lfemur 2.47671 -22.425 -13.6392
ltibia 2.87634
lfoot -16.5983 40.8996
ltoes 6.58676
447
root 1.10453 17.5741 7.91557 5.85911 -15.9684 -6.30496
lowerback -0.173479 -3.36357 6.71353
upperback -6.11908 -4.03662 5.87402
thorax -6.35416 -2.20144 2.63618
lowerneck -12.9062 -3.94462 -3.56398
upperneck 40.3294 -9.05766 7.57274
head 17.6339 -3.432 2.38629
rclavicle 5.80451e-014 -6.20208e-014
rhumerus 35.3975 48.4989 -65.258
rradius 140.73
rwrist -59.9588
rhand 2.01561 -48.6922
rfingers 7.12502
rthumb 27.5195 283.299
lclavicle 5.80451e-014 -6.20208e-014
lhumerus 35.084 18.7024 86.256
lradius 13.6329
lwrist -111.386
lhand -55.6546 -44.969
lfingers 7.12502
lthumb -28.0061 -17.0386
rfemur -9.01948 25.0995 21.0285
rtibia 9.82872
rfoot -9.88287 -9.78639
rtoes -9.17994
lfemur 2.72447 -22.2588 -13.8291
ltibia 2.73328
lfoot -17.3032 41.5323
ltoes 7.698
448
root 1.10646 17.5731 7.94148 5.9385 -17.1591 -6.19755
lowerback -0.190689 -3.37136 6.64154
upperback -6.21431 -4.04392 5.9809
thorax -6.4335 -2.20216 2.79415
lowerneck -12.5511 -4.11613 -3.76674
upperneck 40.4998 -9.3391 7.55807
head 17.6791 -3.60122 2.37174
rclavicle 2.00773e-014 -1.90833e-014
rhumerus 34.4637 48.4289 -65.5781
rradius 140.951
rwrist -59.6393
rhand 2.06281 -49.3562
rfingers 7.12502
rthumb 27.5647 282.642
lclavicle 2.00773e-014 -1.90833e-014
lhumerus 29.9429 5.30583 72.7802
lradius 15.5603
lwrist -88.9777
lhand -56.211 -46.9022
lfingers 7.12502
lthumb -28.5379 -19.06
rfemur -9.26108 25.3391 20.8059
rtibia 9.9334
rfoot -9.92277 -8.85536
rtoes -8.85618
lfemur 3.2896 -22.1783 -14.3094
ltibia 2.40569
lfoot -18.2071 42.3466
ltoes 9.22626
449
root 1.11001 17.5696 7.96585 5.67762 -18.5198 -5.50409
lowerback 0.0526895 -3.47598 6.00489
upperback -6.25366 -4.18144 6.01332
thorax -6.56066 -2.23833 3.20565
lowerneck -12.285 -4.19777 -4.125
upperneck 40.6405 -9.49324 7.68662
head 17.7416 -3.72337 2.4736
rclavicle 7.15625e-015 2.06736e-014
rhumerus 34.2762 48.7712 -65.4925
rradius 141.229
rwrist -58.9392
rhand 1.42429 -50.6032
rfingers 7.12502
rthumb 26.9539 281.299
lclavicle 7.15625e-015 2.06736e-014
lhumerus 25.9246 -5.81526 62.7886
lradius 19.8397
lwrist -70.4797
lhand -56.4659 -51.3605
lfingers 7.12502
lthumb -28.7814 -23.5594
rfemur -9.32697 25.5938 19.9897
rtibia 9.94101
rfoot -9.87207 -7.85654
rtoes -8.75521
lfemur 3.9805 -22.0734 -15.5738
ltibia 2.21617
lfoot -19.1532 43.2497
ltoes 10.8672
450
root 1.11512 17.5678 7.98325 5.58858 -19.8645 -4.99858
lowerback 0.217184 -3.5792 5.61777
upperback -6.2572 -4.32155 6.03163
thorax -6.62384 -2.28818 3.45878
lowerneck -12.0093 -4.30726 -4.30585
upperneck 40.5061 -9.71386 7.83842
head 17.6396 -3.84551 2.5323
rclavicle -4.85035e-014 9.54166e-015
rhumerus 34.3223 49.0533 -65.4046
rradius 141.445
rwrist -58.1817
rhand 0.599209 -51.4048
rfingers 7.12502
rthumb 26.1642 280.378
lclavicle -4.85035e-014 9.54166e-015
lhumerus 22.2192 -11.4857 57.3759
lradius 24.9397
lwrist -60.8744
lhand -56.5899 -54.6318
lfingers 7.12502
lthumb -28.8998 -26.8509
rfemur -9.6166 25.9797 19.3118
rtibia 9.97792
rfoot -9.75291 -6.98837
rtoes -8.85442
lfemur 4.25617 -21.7016 -16.4108
ltibia 2.26758
lfoot -19.9872 43.9567
ltoes 12.0503
451
root 1.12184 17.5711 8.00839 6.22457 -21.1355 -5.59634
lowerback -0.0947491 -3.44599 6.55253
upperback -6.24891 -4.14447 6.03557
thorax -6.51494 -2.25205 2.91703
lowerneck -11.7422 -4.61909 -4.16369
upperneck 40.1537 -10.4085 8.20647
head 17.4696 -4.08501 2.53644
rclavicle 1.39149e-014 -5.56597e-014
rhumerus 33.5814 48.639 -66.1223
rradius 141.52
rwrist -57.5347
rhand 0.0862292 -51.8098
rfingers 7.12502
rthumb 25.673 279.901
lclavicle 1.39149e-014 -5.56597e-014
lhumerus 18.7892 -14.7672 54.1401
lradius 30.3648
lwrist -56.243
lhand -56.6702 -55.2569
lfingers 7.12502
lthumb -28.9766 -27.4891
rfemur -10.271 26.3831 19.7016
rtibia 10.0768
rfoot -9.6721 -6.09549
rtoes -8.83443
lfemur 4.14181 -21.1114 -15.8051
ltibia 2.24778
lfoot -20.742 44.4628
ltoes 12.8239
452
root 1.13139 17.5708 8.03455 6.7627 -22.4384 -6.13645
lowerback -0.274577 -3.23898 7.43347
upperback -6.22322 -3.86502 5.99196
thorax -6.45661 -2.16257 2.36007
lowerneck -11.4033 -4.95198 -4.23717
upperneck 39.749 -11.1402 8.77297
head 17.2984 -4.35305 2.66437
rclavicle 7.35503e-015 -5.56597e-014
rhumerus 32.9178 48.1381 -66.7739
rradius 141.751
rwrist -56.9949
rhand -0.817305 -52.6283
rfingers 7.12502
rthumb 24.8073 278.961
lclavicle 7.35503e-015 -5.56597e-014
lhumerus 15.6086 -16.5173 52.2711
lradius 35.7409
lwrist -52.1765
lhand -56.293 -56.8735
lfingers 7.12502
lthumb -28.6162 -29.0444
rfemur -10.7912 26.6604 20.0627
rtibia 10.1466
rfoot -9.57422 -5.04529
rtoes -9.02903
lfemur 4.20391 -20.582 -15.3953
ltibia 2.19439
lfoot -21.5458 45.0034
ltoes 13.7414
